<svg xmlns="http://www.w3.org/2000/svg" viewBox="0 0 668 31"><title>logo</title><g id="Artwork"><path d="M127.42,14.72h-7.61V26.18h7.61A5.6,5.6,0,0,0,133,20.45,5.6,5.6,0,0,0,127.42,14.72Z" style="fill:none"/><path d="M205.33,14.72h-7.6V26.18h7.6a5.61,5.61,0,0,0,5.58-5.73A5.61,5.61,0,0,0,205.33,14.72Z" style="fill:none"/><path d="M157.38,18.58l4,9.78h2.36L153.09,2.5h-2.54l-10.7,25.86h2.36l4-9.78ZM147.16,16.4l4.66-11.26,4.66,11.26Z" style="fill:#998e7d"/><polygon points="301.49 25.38 296.15 12.46 300.26 2.5 297.8 2.5 294.91 9.48 292.03 2.5 289.56 2.5 293.68 12.46 288.33 25.38 278.87 2.5 276.4 2.5 287.1 28.36 289.57 28.36 294.91 15.44 300.26 28.36 302.73 28.36 313.42 2.5 310.96 2.5 301.49 25.38" style="fill:#998e7d"/><path d="M129.53,12.79A6,6,0,0,0,125.29,2.5h-7.65v10h0V28.36h10a7.91,7.91,0,0,0,1.94-15.57Zm-4.24-8.11A3.71,3.71,0,0,1,129,8.52a3.87,3.87,0,0,1-3.68,4h-5.48V4.68Zm2.13,21.5h-7.61V14.72h7.61A5.6,5.6,0,0,1,133,20.45,5.6,5.6,0,0,1,127.42,26.18Z" style="fill:#998e7d"/><path d="M205.33,14.72h-7.6V26.18h7.6a5.61,5.61,0,0,0,5.58-5.73A5.61,5.61,0,0,0,205.33,14.72Z" style="fill:none"/><path d="M207.44,12.79A6,6,0,0,0,203.21,2.5h-7.66v10h0V28.36h9.95a7.91,7.91,0,0,0,1.94-15.57Zm-4.23-8.11a3.71,3.71,0,0,1,3.68,3.84,3.87,3.87,0,0,1-3.68,4h-5.48V4.68Zm2.12,21.5h-7.6V14.72h7.6a5.61,5.61,0,0,1,5.58,5.73A5.61,5.61,0,0,1,205.33,26.18Z" style="fill:#998e7d"/><rect x="320.7" y="2.5" width="2.18" height="25.85" style="fill:#998e7d"/><polygon points="335.18 2.54 333 2.54 333 26.18 333 28.36 333 28.39 335.18 28.39 335.18 28.36 345.54 28.36 345.54 26.18 335.18 26.18 335.18 2.54" style="fill:#998e7d"/><polygon points="221.63 2.5 221.63 4.68 221.63 12.54 221.63 14.72 221.63 26.18 221.63 28.36 223.8 28.36 234.16 28.36 234.16 26.18 223.8 26.18 223.8 14.72 232.87 14.72 232.87 12.54 223.8 12.54 223.8 4.68 234.16 4.68 234.16 2.5 223.8 2.5 221.63 2.5" style="fill:#998e7d"/><path d="M389.68,2a13.48,13.48,0,1,0,13.48,13.48A13.48,13.48,0,0,0,389.68,2Zm0,24.7a11.22,11.22,0,1,1,11.13-11.22A11.18,11.18,0,0,1,389.68,26.65Z" style="fill:#998e7d"/><path d="M501.28,15.43a13.48,13.48,0,0,0,22.3,10.19V22.25a11.09,11.09,0,0,1-19.94-6.82,11.09,11.09,0,0,1,19.94-6.82V5.24a13.48,13.48,0,0,0-22.3,10.19Z" style="fill:#998e7d"/><path d="M356,9a3.8,3.8,0,0,1,1.24-3.94A4.74,4.74,0,0,1,364,6.47l2-1a7.05,7.05,0,0,0-9.92-2.4,5.74,5.74,0,0,0-1.84,7.61c2.86,4.92,10,4,11.37,9.61a5,5,0,0,1-3.78,6c-2.43.53-5.54.07-7.59-3.67l-2,1a8.52,8.52,0,0,0,10.59,4.94A7.54,7.54,0,0,0,366,16.15C362.69,12.8,356.84,12.27,356,9Z" style="fill:#998e7d"/><path d="M445.06,9a3.78,3.78,0,0,1,1.25-3.94A4.74,4.74,0,0,1,453,6.47l2-1a7,7,0,0,0-9.92-2.4,5.75,5.75,0,0,0-1.84,7.61c2.87,4.92,10,4,11.37,9.61a5,5,0,0,1-3.77,6c-2.44.53-5.55.07-7.59-3.67l-2,1a8.53,8.53,0,0,0,10.6,4.94A7.53,7.53,0,0,0,455,16.15C451.73,12.8,445.88,12.27,445.06,9Z" style="fill:#998e7d"/><polygon points="431 25.31 414.7 2.5 411.96 2.5 411.99 2.54 411.99 28.36 414.16 28.36 414.16 5.59 430.44 28.36 431 28.36 433.18 28.36 433.18 2.54 431 2.54 431 25.31" style="fill:#998e7d"/><path d="M538.65,19.11a8.57,8.57,0,1,0-8.57-8.57A8.58,8.58,0,0,0,538.65,19.11Zm0-15.1a6.39,6.39,0,0,1,6.23,6.53,6.23,6.23,0,1,1-12.45,0A6.39,6.39,0,0,1,538.65,4Z" style="fill:#998e7d"/><path d="M530.27,23.62l-.19-.22v3C536.5,33,542.37,22.11,547,28l.19.25V25.42C541,20.37,536.41,30.93,530.27,23.62Z" style="fill:#968c7a"/><path d="M487.4,18.3h-2.24s-1.26,1.95-2.56,3.76L479,18.24l.41-.28a8.86,8.86,0,0,0,1.27-1.06,4.41,4.41,0,0,0,1.24-3,4,4,0,0,0-7.6-1.66h0a4,4,0,0,0-.36,1.66,5,5,0,0,0,1.62,3.48c.13.15.32.36.56.6a15.69,15.69,0,0,0-2.41,1.86h0l0,0a3.67,3.67,0,0,0-.41.51h0a5.08,5.08,0,0,0,4.16,8,5.2,5.2,0,0,0,4.09-1.87c.22-.26.67-.82,1.19-1.56l2.9,3.05h2.79l-4.57-4.64C485.47,21,487.4,18.3,487.4,18.3Zm-11.64-4.38a2.15,2.15,0,0,1,2.18-2.18,2.18,2.18,0,0,1,2.18,2.18,2.64,2.64,0,0,1-.52,1.51,6,6,0,0,1-1.38,1.19l-.47.32-1.22-1.25A2.86,2.86,0,0,1,475.76,13.92Zm4.75,11a3.87,3.87,0,0,1-3.06,1.64,3.2,3.2,0,0,1-2.68-5,10.74,10.74,0,0,1,2.61-2.24l4.08,4.31C481.05,24.19,480.71,24.65,480.51,24.89Z" style="fill:#998e7d"/><path d="M183,9.49a4.82,4.82,0,0,0-4.81-4.81h-5.37V14.3h5.37A4.82,4.82,0,0,0,183,9.49Z" style="fill:none"/><path d="M178.16,2.5h-7.55V28.36h2.18V16.48h5.35l7.28,11.88H188l-7.53-12.28a7,7,0,0,0-2.3-13.58Zm-5.37,2.18h5.37a4.73,4.73,0,0,1,4.7,4.81,4.73,4.73,0,0,1-4.7,4.81h-5.37Z" style="fill:#998e7d"/><path d="M256.21,9.49a4.82,4.82,0,0,0-4.81-4.81H246V14.3h5.37A4.82,4.82,0,0,0,256.21,9.49Z" style="fill:none"/><path d="M251.4,2.5h-7.55V28.36H246V16.48h5.35l7.28,11.88h2.56L253.7,16.08A7,7,0,0,0,251.4,2.5ZM246,4.68h5.37a4.73,4.73,0,0,1,4.7,4.81,4.73,4.73,0,0,1-4.7,4.81H246Z" style="fill:#998e7d"/><path d="M3.63,11.32l.05,0v7.39h3.9l0,.06v.81l0,.05H2.81l-.05-.05V11.37l.05,0Z" style="fill:#998e7d"/><path d="M22.82,15.5a4.43,4.43,0,1,1-4.43-4.36A4.4,4.4,0,0,1,22.82,15.5ZM15,15.5a3.36,3.36,0,1,0,3.36-3.39A3.37,3.37,0,0,0,15,15.5Z" style="fill:#998e7d"/><path d="M31.37,11.32l.12.06,5.19,6.83V11.38l.06-.06h.8l.06.06v8.24l-.06.06h-.85l-.12-.06-5.18-6.83v6.83l-.06.06h-.8l-.06-.06V11.38l.06-.06Z" style="fill:#998e7d"/><path d="M48.21,11.32a4.19,4.19,0,1,1,0,8.36H45.68l-.06-.06V11.38l.06-.06Zm-1.67,7.44h1.67a3.26,3.26,0,1,0,0-6.52H46.54Z" style="fill:#998e7d"/><path d="M68.74,15.5a4.42,4.42,0,1,1-4.42-4.36A4.4,4.4,0,0,1,68.74,15.5ZM61,15.5a3.37,3.37,0,1,0,3.37-3.39A3.38,3.38,0,0,0,61,15.5Z" style="fill:#998e7d"/><path d="M77.3,11.32l.12.06,5.19,6.83V11.38l.06-.06h.8l.06.06v8.24l-.06.06h-.85l-.12-.06-5.19-6.83v6.83l-.06.06h-.8l-.06-.06V11.38l.06-.06Z" style="fill:#998e7d"/><path d="M586.14,11.32l.06.06v.8l-.06.06h-3.89v2.38h2.93l.06.06v.81l-.06.06h-2.93v3.21h4.25l.06.06v.8l-.06.06h-5.11l-.06-.06V11.38l.06-.06Z" style="fill:#998e7d"/><path d="M597.17,12.88a1.53,1.53,0,0,0-1.29-.77,1.07,1.07,0,0,0-1.09,1.11c0,1.42,3.83,1.37,3.83,4A2.62,2.62,0,0,1,596,19.86a2.59,2.59,0,0,1-2.51-1.73l.67-.53h.12A1.81,1.81,0,0,0,596,18.89a1.57,1.57,0,0,0,1.57-1.65c0-1.81-3.84-1.73-3.84-4a2.1,2.1,0,0,1,2.15-2.08A2.39,2.39,0,0,1,598,12.39l-.68.49Z" style="fill:#998e7d"/><path d="M611.71,11.32l0,.06v.8l0,.06h-2.82v7.38l-.06.06H608l-.06-.06V12.24h-2.82l-.06-.06v-.8l.06-.06Z" style="fill:#998e7d"/><path d="M618.71,18.69l.06.06v.87l-.06.06h-.87l-.06-.06v-.87l.06-.06Z" style="fill:#998e7d"/><path d="M627.81,11.32v8.3l-.06.06H627l-.06-.06V12.05l.06-.12.8-.67Z" style="fill:#998e7d"/><path d="M637.87,11.14c1.37,0,2.75,1,2.75,3.4a7.05,7.05,0,0,1-2.75,5.14h-1l-.06-.06a8.31,8.31,0,0,0,2.65-3.76,2.52,2.52,0,0,1-1.54.54,2.63,2.63,0,1,1,0-5.26Zm1.77,3.56a.86.86,0,0,0,0-.16c0-1.78-.87-2.48-1.78-2.48a1.63,1.63,0,0,0-1.66,1.71,1.64,1.64,0,0,0,1.66,1.71A2.33,2.33,0,0,0,639.64,14.7Z" style="fill:#998e7d"/><path d="M653.09,15.5c0,2.41-1,4.36-2.67,4.36s-2.69-1.95-2.69-4.36,1-4.36,2.69-4.36S653.09,13.09,653.09,15.5Zm-4.38,0c0,1.9.65,3.44,1.71,3.44s1.71-1.54,1.71-3.44-.66-3.44-1.71-3.44S648.71,13.6,648.71,15.5Z" style="fill:#998e7d"/><path d="M665.18,11.32l.06.06-.55.86H662l-.23,2.26a2.76,2.76,0,0,1,3.31,2.67,2.7,2.7,0,0,1-2.81,2.69A2.94,2.94,0,0,1,660,18.67l.54-.64h.12a2.09,2.09,0,0,0,1.67.91,1.76,1.76,0,0,0,1.84-1.77A2,2,0,0,0,662,15.36a3.68,3.68,0,0,0-1.22.2l-.06-.06.41-4.12.06-.06Z" style="fill:#998e7d"/></g></svg>